<svg width="268" height="268" viewBox="0 0 268 268" fill="none" xmlns="http://www.w3.org/2000/svg">
    <mask id="mask0_1875_28" style="mask-type:alpha" maskUnits="userSpaceOnUse" x="3" y="0" width="263" height="268">
        <path d="M167.701 170.024L182.93 154.786L194.79 142.943C197.588 140.127 200.191 137.124 202.58 133.955C203.58 132.627 204.58 131.269 205.45 129.881C211.394 120.96 215.548 110.972 217.68 100.471C218.01 98.8535 218.29 97.2358 218.52 95.578C219.64 87.7219 219.64 79.7469 218.52 71.8907C218.29 70.233 218.01 68.6153 217.68 66.9975C215.544 56.4959 211.395 46.506 205.46 37.5781C204.55 36.19 203.59 34.8419 202.59 33.5137C200.507 30.7398 198.252 28.0983 195.84 25.6047C195.5 25.2551 195.16 24.9056 194.84 24.5561L194.31 24.0368C194.14 23.8571 193.96 23.6873 193.78 23.5175C191.285 21.106 188.64 18.8546 185.86 16.7768C184.53 15.7782 183.18 14.7796 181.79 13.9108C172.83 7.95771 162.798 3.79964 152.25 1.6677C150.63 1.33815 149.01 1.05854 147.35 0.828856C143.921 0.334742 140.464 0.0579028 137 0L3 0L25.72 22.6887C32.6503 29.5951 42.0392 33.4769 51.83 33.4838H135.48C141.192 33.478 146.863 34.4439 152.25 36.3398C153.926 36.9213 155.572 37.5879 157.18 38.3371C167.561 43.3244 175.928 51.6976 180.9 62.0743C181.653 63.6724 182.32 65.3091 182.9 66.9775C186.713 77.8174 186.713 89.6314 182.9 100.471C182.318 102.139 181.65 103.775 180.9 105.375C178.43 110.518 175.102 115.205 171.06 119.235L159.2 131.119L144 146.298L73 74.9765C71.5642 73.4957 69.7185 72.4764 67.6993 72.0492C65.68 71.622 63.579 71.8063 61.6652 72.5784C59.7514 73.3506 58.1119 74.6756 56.9566 76.3837C55.8013 78.0918 55.1827 80.1053 55.18 82.1666V230.092C55.1787 230.671 55.2919 231.244 55.513 231.779C55.7342 232.314 56.0589 232.8 56.4687 233.209C56.8785 233.619 57.3652 233.943 57.9008 234.164C58.4365 234.385 59.0105 234.498 59.59 234.496H101.26C101.839 234.497 102.413 234.384 102.949 234.163C103.484 233.942 103.97 233.617 104.38 233.208L146.64 191.026L224 268H265.5L167.701 170.024ZM85.16 197.727V136.591C85.137 135.98 85.3021 135.376 85.6331 134.861C85.9642 134.346 86.4452 133.944 87.0116 133.71C87.578 133.477 88.2025 133.421 88.8011 133.553C89.3998 133.684 89.9438 133.995 90.36 134.444L123.05 167.229L90.35 199.874C89.933 200.32 89.3899 200.627 88.7931 200.756C88.1963 200.885 87.5743 200.83 87.0101 200.596C86.446 200.363 85.9666 199.963 85.636 199.45C85.3054 198.938 85.1393 198.336 85.16 197.727Z"
              fill="white"/>
    </mask>
    <g mask="url(#mask0_1875_28)">
        <path d="M0 0L268 268" stroke="url(#paint0_linear_1875_28)" stroke-width="322" stroke-linejoin="round"/>
    </g>
    <defs>
        <linearGradient id="paint0_linear_1875_28" x1="0.353553" y1="-0.353553" x2="268.354" y2="267.646"
                        gradientUnits="userSpaceOnUse">
            <stop stop-color="#8556FC"/>
            <stop offset="1" stop-color="#7628DA"/>
        </linearGradient>
    </defs>
</svg>
